<svg xmlns="http://www.w3.org/2000/svg" width="512" height="512" viewBox="0 0 512 512"><path fill="#c7eec7" d="m203.181-.08 3.78-.008q5.106-.009 10.211-.012l6.411-.006q8.922-.009 17.845-.013h2.301l2.31-.001h1.157q9.238-.004 18.475-.022 9.548-.018 19.095-.018 5.335.001 10.67-.013C338.583-.28 383.315 3.535 422 24.5l1.203.651c10.416 5.692 20.428 12.257 29.175 20.319a93 93 0 0 0 2.965 2.592c5.18 4.528 9.939 9.507 14.156 14.938l1.283 1.578c5.55 6.849 10.36 14.265 14.717 21.922l.531.932c6.723 11.925 11.41 24.547 15.469 37.567l.48 1.519c7.69 24.517 10.089 51.09 10.101 76.662l.008 3.78q.009 5.106.012 10.211l.006 6.411q.009 8.922.013 17.845v2.301l.001 3.467q.004 9.237.023 18.475.018 9.548.018 19.095-.001 5.335.013 10.67c.097 39.337-2.559 80.898-20.115 116.9a154 154 0 0 0-1.704 3.696c-5.318 11.721-12.302 22.827-20.691 32.602a75 75 0 0 0-2.14 2.621 96.2 96.2 0 0 1-18.436 18.033 54 54 0 0 0-3.471 2.895c-2.239 1.98-4.651 3.619-7.149 5.254l-1.399.922c-5.971 3.915-11.989 7.484-18.423 10.582a277 277 0 0 0-3.718 1.855c-23.396 11.689-49.714 17.18-75.586 19.829l-1.227.126q-1.774.179-3.548.351l-1.015.1c-8.247.773-16.459.875-24.735.878l-3.78.008q-5.106.009-10.211.012l-6.411.006a24161 24161 0 0 1-18.995.013h-1.152l-3.467.001q-9.238.004-18.475.023-9.548.018-19.095.018-5.335-.001-10.67.013c-45.508.112-92.656-4.371-151.563-41.174l-2.406-1.875c-6.864-5.501-13.527-11.794-18.97-18.71a190 190 0 0 0-3.231-3.932c-2.46-3.005-4.658-6.153-6.799-9.389l-.587-.882A169 169 0 0 1 23 418.999l-.605-1.185C13.907 401.076 8.533 382.875 5 364.5l-.357-1.845c-1.463-7.734-2.465-15.487-3.268-23.312l-.126-1.227q-.179-1.774-.351-3.548l-.1-1.015c-.773-8.247-.875-16.459-.878-24.735l-.008-3.78q-.009-5.106-.012-10.211l-.006-6.411q-.009-8.923-.013-17.845v-1.149l-.001-3.462v-1.157a11717 11717 0 0 0-.022-18.475q-.018-9.547-.018-19.095.001-5.335-.013-10.67c-.05-20.377.521-40.402 3.674-60.562l.277-1.773c3.545-22.161 10.104-44.373 20.722-64.227l.577-1.089c4.93-9.242 10.754-17.828 17.423-25.911l.616-.755c5.56-6.787 11.679-13.349 18.613-18.751 1.393-1.089 2.716-2.243 4.053-3.4 3.839-3.207 8.014-5.894 12.218-8.594l1.653-1.076C84.588 27.29 89.788 24.641 95 22.001l1.085-.555C122.443 8.074 152.76 2.706 182 .5l1.759-.133c6.473-.435 12.936-.445 19.422-.447"/><path fill="#3a3" fill-rule="evenodd" stroke="#236a23" stroke-width="3" d="M221.582 63.26h68.836c10.325 0 13.767 5.163 13.767 13.767v20.651c0 5.163 3.442 6.884 8.604 6.884h20.651c26.588 0 46.464 21.597 46.464 48.185v240.924c0 26.588-19.876 48.185-46.464 48.185H178.56c-26.588 0-46.464-21.597-46.464-48.185V152.747c0-26.588 19.876-48.185 46.464-48.185h20.651c5.163 0 8.604-1.721 8.604-6.884V77.027c0-8.604 3.442-13.767 13.767-13.767m13.767 127.346c0-6.884 5.163-10.325 12.046-10.325h17.209c6.884 0 12.046 3.442 12.046 10.325v41.301c0 3.442 2.581 6.884 6.884 6.884h41.301c6.884 0 10.325 5.163 10.325 12.046v10.325c0 6.884-3.442 12.046-10.325 12.046h-41.301c-4.302 0-6.884 3.442-6.884 6.884v41.301c0 6.884-5.163 10.325-12.046 10.325h-17.209c-6.884 0-12.046-3.442-12.046-10.325v-41.301c0-3.442-2.581-6.884-6.884-6.884h-41.301c-6.884 0-10.325-5.163-10.325-12.046v-10.325c0-6.884 3.442-12.046 10.325-12.046h41.301c4.302 0 6.884-3.442 6.884-6.884Z"/></svg>