<svg id="vector" xmlns="http://www.w3.org/2000/svg" width="24" height="24" viewBox="0 0 24 24"><path fill="@color/oui_primary_icon_color" d="M11.2719,3.6425L11.2689,8.8235C9.8359,9.1625 8.7679,10.4455 8.7669,11.9815C8.7669,13.7765 10.2209,15.2325 12.0159,15.2335C13.5519,15.2345 14.8369,14.1675 15.1769,12.7345L15.1769,12.7345L20.3569,12.7375C19.9749,17.0105 16.3859,20.3605 12.0129,20.3575C7.3879,20.3555 3.6399,16.6045 3.6419,11.9785C3.6449,7.6065 6.9969,4.0205 11.2719,3.6425L11.2719,3.6425ZM12.7711,3.6435C16.7981,4.0035 20.0021,7.2105 20.3581,11.2375L20.3581,11.2375L15.1771,11.2345C14.8961,10.0435 13.9601,9.1065 12.7691,8.8245L12.7691,8.8245Z" stroke="#000000" stroke-opacity="0" stroke-width="1" fill-rule="evenodd" id="path_0"/></svg>